<svg xmlns="http://www.w3.org/2000/svg" width="66" height="42" fill="none" viewBox="0 0 66 42"><path fill="url(#a)" d="M.152 32.424a.5.5 0 1 1 .696-.718l-.348.36zM61.237.138a.5.5 0 0 1 .707.017l3.105 3.257a.5.5 0 1 1-.723.69l-2.76-2.895-2.896 2.76a.5.5 0 0 1-.69-.723zM.5 32.065l.348-.359C20.182 50.458 60.154 39.571 61.082.488l.5.012.5.012C61.134 40.435 20.135 51.805.152 32.424z"/><defs><linearGradient id="a" x1="-6.624" x2="25.809" y1="35.647" y2="-17.153" gradientUnits="userSpaceOnUse"><stop stop-color="#ffdf70"/><stop offset="1" stop-color="#ffdf70" stop-opacity=".831"/></linearGradient></defs></svg>