<svg width="66" height="42" viewBox="0 0 66 42" fill="none" xmlns="http://www.w3.org/2000/svg">
<path d="M0.151868 32.424C-0.0463538 32.2317 -0.0511894 31.9152 0.141067 31.717C0.333324 31.5187 0.64987 31.5139 0.848092 31.7062L0.49998 32.0651L0.151868 32.424ZM61.2368 0.138154C61.4367 -0.0524196 61.7532 -0.0449066 61.9438 0.154935L65.0493 3.41153C65.2399 3.61137 65.2324 3.92787 65.0325 4.11844C64.8327 4.30901 64.5162 4.3015 64.3256 4.10166L61.5651 1.20691L58.6704 3.96741C58.4705 4.15799 58.154 4.15047 57.9635 3.95063C57.7729 3.75079 57.7804 3.4343 57.9802 3.24372L61.2368 0.138154ZM0.49998 32.0651L0.848092 31.7062C20.182 50.4583 60.1543 39.5707 61.082 0.488132L61.5819 0.499998L62.0818 0.511864C61.1341 40.4349 20.1345 51.8053 0.151868 32.424L0.49998 32.0651Z" fill="url(#paint0_linear_3755_1014)"/>
<defs>
<linearGradient id="paint0_linear_3755_1014" x1="-6.62384" y1="35.6467" x2="25.8088" y2="-17.1526" gradientUnits="userSpaceOnUse">
<stop stop-color="#FFDF70"/>
<stop offset="1" stop-color="#FFDF70" stop-opacity="0.831373"/>
</linearGradient>
</defs>
</svg>
