<svg width="332" height="90" viewBox="0 0 332 90" fill="none" xmlns="http://www.w3.org/2000/svg">
<path d="M1.43514 17.1306C2.00973 11.2849 2.29702 8.36221 3.72044 5.98846C4.94342 3.94897 6.8743 2.20001 9.02541 1.18332C11.529 0 14.591 0 20.715 0H311.308C317.571 0 320.702 0 323.227 1.20776C325.411 2.25208 327.327 4.01474 328.549 6.10268C329.961 8.51742 330.213 11.5441 330.714 17.5974C332.401 37.9903 332.426 53.5784 330.803 72.5783C330.294 78.5321 330.04 81.5089 328.626 83.9167C327.408 85.9895 325.477 87.7603 323.307 88.7964C320.786 90 317.679 90 311.467 90H20.8273C14.6647 90 11.5834 90 9.07788 88.8147C6.91743 87.7925 4.99817 86.0518 3.77151 84.002C2.34896 81.6248 2.06206 78.6666 1.48829 72.7505C-0.446175 52.804 -0.527148 37.0939 1.43514 17.1306Z" fill="url(#paint0_linear_3746_945)"/>
<defs>
<linearGradient id="paint0_linear_3746_945" x1="332" y1="45.1962" x2="0" y2="45.1962" gradientUnits="userSpaceOnUse">
<stop offset="0.0364495" stop-color="#FECC63"/>
<stop offset="0.407954" stop-color="#FFE7B9"/>
<stop offset="0.911465" stop-color="#FED48C"/>
</linearGradient>
</defs>
</svg>
