<svg xmlns="http://www.w3.org/2000/svg" width="332" height="94" fill="none" viewBox="0 0 332 94"><path fill="#cca665" d="M2.12 15.583C2.82 9.521 8.067 5 14.243 5h303.698c6.291 0 11.592 4.687 12.185 10.875 2.48 25.874 2.494 43.44.069 67.358C329.573 89.376 324.29 94 318.041 94H14.313c-6.206 0-11.466-4.564-12.15-10.659-2.813-25.06-2.94-42.683-.043-67.758"/><path fill="url(#a)" d="M1.435 17.13c.575-5.845.862-8.768 2.285-11.142a12.6 12.6 0 0 1 5.305-4.805C11.53 0 14.591 0 20.715 0h290.593c6.263 0 9.394 0 11.919 1.208a12.55 12.55 0 0 1 5.322 4.895c1.412 2.414 1.664 5.441 2.165 11.494 1.687 20.393 1.712 35.981.089 54.981-.509 5.954-.763 8.93-2.177 11.339a12.6 12.6 0 0 1-5.319 4.88C320.786 90 317.679 90 311.467 90H20.827c-6.162 0-9.244 0-11.75-1.185a12.6 12.6 0 0 1-5.305-4.813c-1.423-2.377-1.71-5.335-2.284-11.251-1.934-19.947-2.015-35.657-.053-55.62"/><defs><linearGradient id="a" x1="332" x2="0" y1="45.196" y2="45.196" gradientUnits="userSpaceOnUse"><stop offset=".036" stop-color="#fecc63"/><stop offset=".408" stop-color="#ffe7b9"/><stop offset=".911" stop-color="#fed48c"/></linearGradient></defs></svg>