<svg xmlns="http://www.w3.org/2000/svg" width="21" height="21" fill="none" viewBox="0 0 21 21"><g filter="url(#a)"><circle cx="10.5" cy="8.5" r="6.5" fill="#fff"/><path fill="#0367fd" d="M9.541 9.979 7.95 8.386a.514.514 0 0 0-.731.016.5.5 0 0 0-.147.358q0 .21.147.357l1.982 2a.47.47 0 0 0 .683 0l3.883-3.885a.514.514 0 0 0 0-.747.52.52 0 0 0-.382-.138.53.53 0 0 0-.365.154zM10.5 15q-1.332 0-2.519-.512a6.6 6.6 0 0 1-2.072-1.397 6.6 6.6 0 0 1-1.397-2.072A6.3 6.3 0 0 1 4 8.5q0-1.35.512-2.535a6.5 6.5 0 0 1 1.397-2.064 6.7 6.7 0 0 1 2.072-1.39A6.3 6.3 0 0 1 10.5 2q1.35 0 2.535.512 1.186.511 2.064 1.39a6.6 6.6 0 0 1 1.39 2.063q.51 1.186.511 2.535 0 1.332-.512 2.519a6.7 6.7 0 0 1-1.39 2.072 6.5 6.5 0 0 1-2.063 1.397A6.3 6.3 0 0 1 10.5 15"/></g><defs><filter id="a" width="21" height="21" x="0" y="0" color-interpolation-filters="sRGB" filterUnits="userSpaceOnUse"><feFlood flood-opacity="0" result="BackgroundImageFix"/><feColorMatrix in="SourceAlpha" result="hardAlpha" values="0 0 0 0 0 0 0 0 0 0 0 0 0 0 0 0 0 0 127 0"/><feOffset dy="2"/><feGaussianBlur stdDeviation="2"/><feComposite in2="hardAlpha" operator="out"/><feColorMatrix values="0 0 0 0 0.494118 0 0 0 0 0.701961 0 0 0 0 1 0 0 0 0.3 0"/><feBlend in2="BackgroundImageFix" result="effect1_dropShadow_3740_910"/><feBlend in="SourceGraphic" in2="effect1_dropShadow_3740_910" result="shape"/></filter></defs></svg>